<?xml version="1.0" encoding="UTF-8" standalone="no"?>
<svg
   xmlns:dc="http://purl.org/dc/elements/1.1/"
   xmlns:cc="http://creativecommons.org/ns#"
   xmlns:rdf="http://www.w3.org/1999/02/22-rdf-syntax-ns#"
   xmlns:svg="http://www.w3.org/2000/svg"
   xmlns="http://www.w3.org/2000/svg"
   xmlns:sodipodi="http://sodipodi.sourceforge.net/DTD/sodipodi-0.dtd"
   xmlns:inkscape="http://www.inkscape.org/namespaces/inkscape"
   sodipodi:docname="linkedin-icon.svg"
   inkscape:version="1.0 (4035a4fb49, 2020-05-01)"
   id="svg8"
   version="1.1"
   viewBox="0 0 26.458 26.462"
   height="26.462mm"
   width="26.458mm">
  <defs
     id="defs2" />
  <sodipodi:namedview
     inkscape:window-maximized="1"
     inkscape:window-y="27"
     inkscape:window-x="0"
     inkscape:window-height="1016"
     inkscape:window-width="1920"
     inkscape:bbox-nodes="true"
     inkscape:snap-bbox="true"
     inkscape:snap-page="true"
     showgrid="false"
     inkscape:document-rotation="0"
     inkscape:current-layer="layer1"
     inkscape:document-units="mm"
     inkscape:cy="103.3561"
     inkscape:cx="-9.7225713"
     inkscape:zoom="2.8"
     inkscape:pageshadow="2"
     inkscape:pageopacity="1"
     borderopacity="1.0"
     bordercolor="#666666"
     pagecolor="#141414"
     id="base" />
  <metadata
     id="metadata5">
    <rdf:RDF>
      <cc:Work
         rdf:about="">
        <dc:format>image/svg+xml</dc:format>
        <dc:type
           rdf:resource="http://purl.org/dc/dcmitype/StillImage" />
        <dc:title />
      </cc:Work>
    </rdf:RDF>
  </metadata>
  <g
     id="layer1"
     inkscape:groupmode="layer"
     inkscape:label="Layer 1">
    <path
       id="path849"
       d="m 1.620852,0.04568903 c -0.7802499,0.11204 -1.3655999,0.70171 -1.5591399,1.45020997 -0.11186,0.43261 -0.0384,0.95286 -0.0384,1.39789 v 2.69592 14.44481 3.59456 c 0,0.70341 -0.0735,1.38947 0.3518,1.99698 0.5376199,0.76794 1.3657699,0.79879 2.2109899,0.79879 h 3.79426 12.447841 3.99395 c 0.63943,0 1.3683,0.097 1.99698,-0.0206 0.70181,-0.13127 1.32287,-0.61364 1.53198,-1.31072 0.14861,-0.49525 0.0989,-1.05363 0.0989,-1.5643 v -2.62935 -14.64451 -3.528 c 0,-0.70244 0.0452,-1.41642 -0.41654,-1.99697997 -0.56841,-0.71468 -1.35239,-0.69894 -2.17954,-0.69894 H 19.926543 7.645122 3.651172 c -0.65981,0 -1.37725,-0.0795 -2.03027,0.0143 M 5.648142,3.668869 c 2.32535,-0.27815 3.54524,3.03581 1.43117,4.20704 -0.26959,0.14934 -0.55825,0.26037 -0.86535,0.30031 -2.39335,0.31099 -3.51512,-2.91216 -1.49774,-4.19419 0.27998,-0.17793 0.60442,-0.27402 0.93192,-0.31316 m 16.874481,18.8286 h -2.86234 c -0.22586,0 -0.83247,0.10773 -1.0117,-0.0342 -0.11789,-0.0934 -0.0534,-0.46214 -0.0534,-0.59816 v -1.69744 c 0,-1.35308 -0.0169,-2.7074 3.8e-4,-4.06039 0.0108,-0.84216 -0.008,-1.81971 -0.58668,-2.49505 -1.00727,-1.17453 -3.04512,-0.51379 -3.53861,0.79749 -0.36036,0.95752 -0.26843,2.05858 -0.26843,3.06203 v 5.02573 h -3.89411 V 9.916499 h 2.79577 c 0.18376,0 0.81118,-0.0979 0.931,0.0533 0.0775,0.0978 0.0342,0.32837 0.0342,0.44589 v 1.23147 c 0.21115,-0.19494 0.34338,-0.48247 0.53822,-0.69895 0.39746,-0.44163 0.90882,-0.78448 1.45876,-1.00514 1.58267,-0.63501 3.86156,-0.45451 5.12428,0.77513 0.4608,0.44875 0.76664,1.05453 0.96005,1.66118 0.44239,1.3877 0.37257,2.85691 0.37257,4.29351 v 5.82452 M 7.844772,9.916499 v 12.58096 H 3.950662 V 9.916499 Z"
       style="fill:#3397ff;fill-opacity:1;stroke:none;stroke-width:0.0332829" />
  </g>
</svg>
