<svg width="1080" height="1080" viewBox="0 0 1080 1080" fill="none" xmlns="http://www.w3.org/2000/svg">
<path d="M230.148 355H263.523L298.773 441H300.273L335.523 355H368.898V483H342.648V399.687H341.586L308.461 482.375H290.586L257.461 399.375H256.398V483H230.148V355ZM434.07 484.875C424.362 484.875 415.966 482.812 408.883 478.687C401.841 474.521 396.404 468.729 392.57 461.312C388.737 453.854 386.82 445.208 386.82 435.375C386.82 425.458 388.737 416.792 392.57 409.375C396.404 401.917 401.841 396.125 408.883 392C415.966 387.833 424.362 385.75 434.07 385.75C443.779 385.75 452.154 387.833 459.195 392C466.279 396.125 471.737 401.917 475.57 409.375C479.404 416.792 481.32 425.458 481.32 435.375C481.32 445.208 479.404 453.854 475.57 461.312C471.737 468.729 466.279 474.521 459.195 478.687C452.154 482.812 443.779 484.875 434.07 484.875ZM434.195 464.25C440.779 464.25 445.758 461.5 449.133 456C452.549 450.5 454.258 443.562 454.258 435.187C454.258 426.812 452.549 419.875 449.133 414.375C445.758 408.833 440.779 406.062 434.195 406.062C427.487 406.062 422.424 408.833 419.008 414.375C415.591 419.875 413.883 426.812 413.883 435.187C413.883 443.562 415.591 450.5 419.008 456C422.424 461.5 427.487 464.25 434.195 464.25ZM542.008 484.875C532.299 484.875 523.904 482.812 516.82 478.687C509.779 474.521 504.341 468.729 500.508 461.312C496.674 453.854 494.758 445.208 494.758 435.375C494.758 425.458 496.674 416.792 500.508 409.375C504.341 401.917 509.779 396.125 516.82 392C523.904 387.833 532.299 385.75 542.008 385.75C551.716 385.75 560.091 387.833 567.133 392C574.216 396.125 579.674 401.917 583.508 409.375C587.341 416.792 589.258 425.458 589.258 435.375C589.258 445.208 587.341 453.854 583.508 461.312C579.674 468.729 574.216 474.521 567.133 478.687C560.091 482.812 551.716 484.875 542.008 484.875ZM542.133 464.25C548.716 464.25 553.695 461.5 557.07 456C560.487 450.5 562.195 443.562 562.195 435.187C562.195 426.812 560.487 419.875 557.07 414.375C553.695 408.833 548.716 406.062 542.133 406.062C535.424 406.062 530.362 408.833 526.945 414.375C523.529 419.875 521.82 426.812 521.82 435.187C521.82 443.562 523.529 450.5 526.945 456C530.362 461.5 535.424 464.25 542.133 464.25ZM641.945 484.562C634.654 484.562 628.07 482.687 622.195 478.937C616.32 475.146 611.654 469.583 608.195 462.25C604.737 454.875 603.008 445.833 603.008 435.125C603.008 424.125 604.779 414.979 608.32 407.687C611.904 400.354 616.633 394.875 622.508 391.25C628.424 387.583 634.883 385.75 641.883 385.75C647.258 385.75 651.737 386.667 655.32 388.5C658.945 390.292 661.862 392.521 664.07 395.187C666.32 397.854 668.029 400.5 669.195 403.125H670.008V355H696.57V483H670.32V467.625H669.195C667.987 470.292 666.237 472.937 663.945 475.562C661.654 478.146 658.695 480.292 655.07 482C651.487 483.708 647.112 484.562 641.945 484.562ZM650.383 463.375C656.799 463.375 661.758 460.792 665.258 455.625C668.799 450.417 670.57 443.542 670.57 435C670.57 426.417 668.82 419.604 665.32 414.562C661.82 409.479 656.841 406.937 650.383 406.937C643.799 406.937 638.779 409.542 635.32 414.75C631.904 419.917 630.195 426.667 630.195 435C630.195 443.375 631.924 450.208 635.383 455.5C638.841 460.75 643.841 463.375 650.383 463.375ZM745.086 355V483H718.461V355H745.086ZM810.164 484.875C800.331 484.875 791.852 482.875 784.727 478.875C777.602 474.833 772.122 469.125 768.289 461.75C764.456 454.333 762.539 445.562 762.539 435.437C762.539 425.562 764.456 416.896 768.289 409.438C772.122 401.979 777.518 396.167 784.477 392C791.477 387.833 799.685 385.75 809.102 385.75C817.56 385.75 825.185 387.542 831.977 391.125C838.81 394.708 844.227 400.125 848.227 407.375C852.227 414.583 854.227 423.625 854.227 434.5V441.812H788.852V441.875C788.852 449.042 790.81 454.687 794.727 458.812C798.643 462.937 803.935 465 810.602 465C815.06 465 818.914 464.062 822.164 462.187C825.414 460.312 827.706 457.542 829.039 453.875L853.664 455.5C851.789 464.417 847.039 471.542 839.414 476.875C831.789 482.208 822.039 484.875 810.164 484.875ZM788.852 425.312H829.164C829.122 419.604 827.289 414.896 823.664 411.187C820.039 407.479 815.331 405.625 809.539 405.625C803.622 405.625 798.768 407.542 794.977 411.375C791.185 415.208 789.143 419.854 788.852 425.312ZM189.672 598H223.047L258.297 684H259.797L295.047 598H328.422V726H302.172V642.687H301.109L267.984 725.375H250.109L216.984 642.375H215.922V726H189.672V598ZM377.781 598V726H350.719V598H377.781ZM400.047 598H433.422L468.672 684H470.172L505.422 598H538.797V726H512.547V642.687H511.484L478.359 725.375H460.484L427.359 642.375H426.297V726H400.047V598ZM680.891 598H707.953V681.125C707.953 690.458 705.745 698.625 701.328 705.625C696.911 712.625 690.724 718.083 682.766 722C674.807 725.875 665.516 727.813 654.891 727.813C644.266 727.813 634.974 725.875 627.016 722C619.057 718.083 612.87 712.625 608.453 705.625C604.036 698.625 601.828 690.458 601.828 681.125V598H628.891V678.812C628.891 686.104 631.266 692.125 636.016 696.875C640.766 701.625 647.057 704 654.891 704C662.766 704 669.057 701.625 673.766 696.875C678.516 692.125 680.891 686.104 680.891 678.812V598ZM759.031 726L722.406 598H751.969L773.156 686.937H774.219L797.594 598H822.906L846.219 687.125H847.344L868.531 598H898.094L861.469 726H835.094L810.719 642.312H809.719L785.406 726H759.031Z" fill="#E5E5E5"/>
</svg>
