<?xml version="1.0" encoding="UTF-8" standalone="no"?>
<svg
   xmlns:dc="http://purl.org/dc/elements/1.1/"
   xmlns:cc="http://creativecommons.org/ns#"
   xmlns:rdf="http://www.w3.org/1999/02/22-rdf-syntax-ns#"
   xmlns:svg="http://www.w3.org/2000/svg"
   xmlns="http://www.w3.org/2000/svg"
   xmlns:sodipodi="http://sodipodi.sourceforge.net/DTD/sodipodi-0.dtd"
   xmlns:inkscape="http://www.inkscape.org/namespaces/inkscape"
   width="26.458mm"
   height="21.546mm"
   viewBox="0 0 26.458 21.546"
   version="1.1"
   id="svg8"
   inkscape:version="1.0 (4035a4fb49, 2020-05-01)"
   sodipodi:docname="twitter-icon.svg">
  <defs
     id="defs2" />
  <sodipodi:namedview
     id="base"
     pagecolor="#141414"
     bordercolor="#666666"
     borderopacity="1.0"
     inkscape:pageopacity="0"
     inkscape:pageshadow="2"
     inkscape:zoom="5.6"
     inkscape:cx="17.63592"
     inkscape:cy="40.504961"
     inkscape:document-units="mm"
     inkscape:current-layer="layer1"
     inkscape:document-rotation="0"
     showgrid="false"
     inkscape:snap-bbox="true"
     inkscape:bbox-nodes="true"
     inkscape:snap-page="true"
     units="mm"
     inkscape:window-width="1920"
     inkscape:window-height="1016"
     inkscape:window-x="0"
     inkscape:window-y="27"
     inkscape:window-maximized="1" />
  <metadata
     id="metadata5">
    <rdf:RDF>
      <cc:Work
         rdf:about="">
        <dc:format>image/svg+xml</dc:format>
        <dc:type
           rdf:resource="http://purl.org/dc/dcmitype/StillImage" />
        <dc:title></dc:title>
      </cc:Work>
    </rdf:RDF>
  </metadata>
  <g
     inkscape:label="Layer 1"
     inkscape:groupmode="layer"
     id="layer1">
    <path
       style="fill:#3eb8ff;stroke:none;stroke-width:0.0212006;fill-opacity:1"
       d="m 13.016824,6.667342 c -0.88911,0 -1.806587,-0.16937 -2.671274,-0.36781 C 8.0360852,5.769542 5.8613292,4.705502 4.0277752,3.202662 3.2134392,2.535182 2.5329642,1.777752 1.8229142,1.006792 h -0.0212 c -0.275395,0.38682 -0.444852,0.89981 -0.559123,1.35683 -0.38716702,1.54824 -0.08964,3.20744 0.828816,4.51573 0.391087,0.55709 0.895385,0.94328 1.405154,1.37804 -0.892418,-0.0383 -1.628863,-0.34152 -2.438068,-0.67842 0,2.55524 1.768023,4.88911 4.32492,5.38495 v 0.0212 c -0.835536,0.16203 -1.572999,0.19201 -2.416867,0.0848 0.07009,0.47466 0.394988,0.98659 0.657239,1.37804 0.963333,1.43793 2.666928,2.39547 4.409701,2.39567 v 0.0212 c -0.284618,0.12031 -0.545894,0.37991 -0.805622,0.55115 -0.474681,0.31294 -0.984004,0.59111 -1.505242,0.81789 -1.297773,0.5646 -2.679309,0.87913 -4.091713,0.94099 -0.541272,0.0237 -1.07333502,-0.0624 -1.61124501689,-0.0628 v 0.0212 C 0.59744918,19.451482 1.1628342,19.818252 1.7805132,20.101912 c 1.26294,0.57984 2.593405,0.99707 3.96451,1.22688 3.83383,0.64301 7.9522128,-0.1412 11.1939098,-2.31576 1.972822,-1.32332 3.620849,-3.14617 4.773101,-5.22232 0.951058,-1.71366 1.595556,-3.57465 1.896181,-5.51215 0.100915,-0.65186 0.157308,-1.31257 0.157308,-1.97166 v -0.63601 c 0,-0.0889 -0.02184,-0.21402 0.02184,-0.2949 0.05321,-0.0989 0.188897,-0.16692 0.274971,-0.23518 0.209037,-0.16577 0.416803,-0.33347 0.614817,-0.51236 0.473197,-0.42744 0.90993,-0.89231 1.30214,-1.39563 0.166213,-0.2132 0.36253,-0.43298 0.478709,-0.67842 l -1.314436,0.47862 -1.78085,0.3694 v -0.0212 c 0.320978,-0.13846 0.61291,-0.40194 0.869225,-0.63443 0.693683,-0.62923 1.215218,-1.4427 1.505242,-2.33365003 -0.326066,0.0959 -0.645983,0.33312 -0.954027,0.48212 C 24.261196,1.147852 23.70786,1.344522 23.150709,1.503292 c -0.226422,0.0645 -0.570084,0.21547 -0.805623,0.18998 -0.108122,-0.0117 -0.198437,-0.14408 -0.275607,-0.21111 -0.226635,-0.19681 -0.449453,-0.39268 -0.69962,-0.56019003 -0.659338,-0.44156 -1.41817,-0.74759 -2.204861,-0.86348 -2.578691,-0.37989 -5.156576,1.12103003 -5.999681,3.61954003 -0.328143,0.97241 -0.342326,1.98978 -0.148489,2.98928 z"
       id="path861" />
  </g>
</svg>
